# xmcd
#
# Track frame offsets:
#	150
#	8071
#	29550
#	82753
#	110194
#	118667
#	159500
#	182964
#	235658
#
# Disc length: 3550 seconds
#
# Revision: 1
# Processed by: cddbd v1.5.2PL0 Copyright (c) Steve Scherf et al.
# Submitted via: audiograbber 1.83.01
#
DISCID=6a0ddc09
DTITLE=Gareth Hardwick - Aversions
DYEAR=2009
DGENRE=Electronic
TTITLE0=Aversions
TTITLE1=Last Heights (Library Tapes Remix)
TTITLE2=David (Apalusa Remix)
TTITLE3=High Tension (Xela Remix)
TTITLE4=Interlude
TTITLE5=Carnations (Steinbrüchel Remix)
TTITLE6=Last Heights (Strategy Remix)
TTITLE7=Dissolve (Chris Herbert Remix)
TTITLE8=Lost In The Memory (Machinefabriek Remix)
EXTD=
EXTT0=
EXTT1=
EXTT2=
EXTT3=
EXTT4=
EXTT5=
EXTT6=
EXTT7=
EXTT8=
PLAYORDER=
